<mxfile host="app.diagrams.net" agent="Mozilla/5.0 (Windows NT 10.0; Win64; x64) AppleWebKit/537.36 (KHTML, like Gecko) Chrome/138.0.0.0 Safari/537.36" version="28.0.7">
  <diagram name="Decision Table" id="DoUwqKAaXM0sl1euEoy4">
    <mxGraphModel dx="1068" dy="540" grid="1" gridSize="10" guides="1" tooltips="1" connect="1" arrows="1" fold="1" page="1" pageScale="1" pageWidth="850" pageHeight="1100" math="0" shadow="0">
      <root>
        <mxCell id="0" />
        <mxCell id="1" parent="0" />
        <mxCell id="d8KklWFFAg3rlcDzmm-0-206" value="Condition / Action" style="rounded=0;whiteSpace=wrap;html=1;fillColor=#E1D5E7;strokeColor=#9673A6;fontStyle=1;fontSize=12;" vertex="1" parent="1">
          <mxGeometry x="700" y="230" width="200" height="40" as="geometry" />
        </mxCell>
        <mxCell id="d8KklWFFAg3rlcDzmm-0-207" value="Case 1" style="rounded=0;whiteSpace=wrap;html=1;fillColor=#D5E8D4;strokeColor=#82B366;fontStyle=1;fontSize=12;" vertex="1" parent="1">
          <mxGeometry x="900" y="230" width="150" height="40" as="geometry" />
        </mxCell>
        <mxCell id="d8KklWFFAg3rlcDzmm-0-208" value="Case 2" style="rounded=0;whiteSpace=wrap;html=1;fillColor=#D5E8D4;strokeColor=#82B366;fontStyle=1;fontSize=12;" vertex="1" parent="1">
          <mxGeometry x="1050" y="230" width="150" height="40" as="geometry" />
        </mxCell>
        <mxCell id="d8KklWFFAg3rlcDzmm-0-209" value="Case 3" style="rounded=0;whiteSpace=wrap;html=1;fillColor=#D5E8D4;strokeColor=#82B366;fontStyle=1;fontSize=12;" vertex="1" parent="1">
          <mxGeometry x="1200" y="230" width="150" height="40" as="geometry" />
        </mxCell>
        <mxCell id="d8KklWFFAg3rlcDzmm-0-210" value="Case 4" style="rounded=0;whiteSpace=wrap;html=1;fillColor=#D5E8D4;strokeColor=#82B366;fontStyle=1;fontSize=12;" vertex="1" parent="1">
          <mxGeometry x="1350" y="230" width="150" height="40" as="geometry" />
        </mxCell>
        <mxCell id="d8KklWFFAg3rlcDzmm-0-211" value="Employee Type = Salaried?" style="rounded=0;whiteSpace=wrap;html=1;fillColor=#FFF2CC;strokeColor=#D6B656;align=left;spacingLeft=10;" vertex="1" parent="1">
          <mxGeometry x="700" y="270" width="200" height="35" as="geometry" />
        </mxCell>
        <mxCell id="d8KklWFFAg3rlcDzmm-0-212" value="Y" style="rounded=0;whiteSpace=wrap;html=1;fillColor=#FFFFFF;strokeColor=#000000;fontSize=14;fontStyle=1;" vertex="1" parent="1">
          <mxGeometry x="900" y="270" width="150" height="35" as="geometry" />
        </mxCell>
        <mxCell id="d8KklWFFAg3rlcDzmm-0-213" value="N" style="rounded=0;whiteSpace=wrap;html=1;fillColor=#FFFFFF;strokeColor=#000000;fontSize=14;fontStyle=1;" vertex="1" parent="1">
          <mxGeometry x="1050" y="270" width="150" height="35" as="geometry" />
        </mxCell>
        <mxCell id="d8KklWFFAg3rlcDzmm-0-214" value="N" style="rounded=0;whiteSpace=wrap;html=1;fillColor=#FFFFFF;strokeColor=#000000;fontSize=14;fontStyle=1;" vertex="1" parent="1">
          <mxGeometry x="1200" y="270" width="150" height="35" as="geometry" />
        </mxCell>
        <mxCell id="d8KklWFFAg3rlcDzmm-0-215" value="N" style="rounded=0;whiteSpace=wrap;html=1;fillColor=#FFFFFF;strokeColor=#000000;fontSize=14;fontStyle=1;" vertex="1" parent="1">
          <mxGeometry x="1350" y="270" width="150" height="35" as="geometry" />
        </mxCell>
        <mxCell id="d8KklWFFAg3rlcDzmm-0-216" value="Employee Type = Hourly?" style="rounded=0;whiteSpace=wrap;html=1;fillColor=#FFF2CC;strokeColor=#D6B656;align=left;spacingLeft=10;" vertex="1" parent="1">
          <mxGeometry x="700" y="305" width="200" height="35" as="geometry" />
        </mxCell>
        <mxCell id="d8KklWFFAg3rlcDzmm-0-217" value="N" style="rounded=0;whiteSpace=wrap;html=1;fillColor=#FFFFFF;strokeColor=#000000;fontSize=14;fontStyle=1;" vertex="1" parent="1">
          <mxGeometry x="900" y="305" width="150" height="35" as="geometry" />
        </mxCell>
        <mxCell id="d8KklWFFAg3rlcDzmm-0-218" value="Y" style="rounded=0;whiteSpace=wrap;html=1;fillColor=#FFFFFF;strokeColor=#000000;fontSize=14;fontStyle=1;" vertex="1" parent="1">
          <mxGeometry x="1050" y="305" width="150" height="35" as="geometry" />
        </mxCell>
        <mxCell id="d8KklWFFAg3rlcDzmm-0-219" value="Y" style="rounded=0;whiteSpace=wrap;html=1;fillColor=#FFFFFF;strokeColor=#000000;fontSize=14;fontStyle=1;" vertex="1" parent="1">
          <mxGeometry x="1200" y="305" width="150" height="35" as="geometry" />
        </mxCell>
        <mxCell id="d8KklWFFAg3rlcDzmm-0-220" value="Y" style="rounded=0;whiteSpace=wrap;html=1;fillColor=#FFFFFF;strokeColor=#000000;fontSize=14;fontStyle=1;" vertex="1" parent="1">
          <mxGeometry x="1350" y="305" width="150" height="35" as="geometry" />
        </mxCell>
        <mxCell id="d8KklWFFAg3rlcDzmm-0-221" value="Hours &lt; 40?" style="rounded=0;whiteSpace=wrap;html=1;fillColor=#FFF2CC;strokeColor=#D6B656;align=left;spacingLeft=10;" vertex="1" parent="1">
          <mxGeometry x="700" y="340" width="200" height="35" as="geometry" />
        </mxCell>
        <mxCell id="d8KklWFFAg3rlcDzmm-0-222" value="—" style="rounded=0;whiteSpace=wrap;html=1;fillColor=#FFFFFF;strokeColor=#000000;fontSize=14;fontStyle=1;" vertex="1" parent="1">
          <mxGeometry x="900" y="340" width="150" height="35" as="geometry" />
        </mxCell>
        <mxCell id="d8KklWFFAg3rlcDzmm-0-223" value="Y" style="rounded=0;whiteSpace=wrap;html=1;fillColor=#FFFFFF;strokeColor=#000000;fontSize=14;fontStyle=1;" vertex="1" parent="1">
          <mxGeometry x="1050" y="340" width="150" height="35" as="geometry" />
        </mxCell>
        <mxCell id="d8KklWFFAg3rlcDzmm-0-224" value="N" style="rounded=0;whiteSpace=wrap;html=1;fillColor=#FFFFFF;strokeColor=#000000;fontSize=14;fontStyle=1;" vertex="1" parent="1">
          <mxGeometry x="1200" y="340" width="150" height="35" as="geometry" />
        </mxCell>
        <mxCell id="d8KklWFFAg3rlcDzmm-0-225" value="N" style="rounded=0;whiteSpace=wrap;html=1;fillColor=#FFFFFF;strokeColor=#000000;fontSize=14;fontStyle=1;" vertex="1" parent="1">
          <mxGeometry x="1350" y="340" width="150" height="35" as="geometry" />
        </mxCell>
        <mxCell id="d8KklWFFAg3rlcDzmm-0-226" value="Hours = 40?" style="rounded=0;whiteSpace=wrap;html=1;fillColor=#FFF2CC;strokeColor=#D6B656;align=left;spacingLeft=10;" vertex="1" parent="1">
          <mxGeometry x="700" y="375" width="200" height="35" as="geometry" />
        </mxCell>
        <mxCell id="d8KklWFFAg3rlcDzmm-0-227" value="—" style="rounded=0;whiteSpace=wrap;html=1;fillColor=#FFFFFF;strokeColor=#000000;fontSize=14;fontStyle=1;" vertex="1" parent="1">
          <mxGeometry x="900" y="375" width="150" height="35" as="geometry" />
        </mxCell>
        <mxCell id="d8KklWFFAg3rlcDzmm-0-228" value="N" style="rounded=0;whiteSpace=wrap;html=1;fillColor=#FFFFFF;strokeColor=#000000;fontSize=14;fontStyle=1;" vertex="1" parent="1">
          <mxGeometry x="1050" y="375" width="150" height="35" as="geometry" />
        </mxCell>
        <mxCell id="d8KklWFFAg3rlcDzmm-0-229" value="Y" style="rounded=0;whiteSpace=wrap;html=1;fillColor=#FFFFFF;strokeColor=#000000;fontSize=14;fontStyle=1;" vertex="1" parent="1">
          <mxGeometry x="1200" y="375" width="150" height="35" as="geometry" />
        </mxCell>
        <mxCell id="d8KklWFFAg3rlcDzmm-0-230" value="N" style="rounded=0;whiteSpace=wrap;html=1;fillColor=#FFFFFF;strokeColor=#000000;fontSize=14;fontStyle=1;" vertex="1" parent="1">
          <mxGeometry x="1350" y="375" width="150" height="35" as="geometry" />
        </mxCell>
        <mxCell id="d8KklWFFAg3rlcDzmm-0-231" value="Hours &gt; 40?" style="rounded=0;whiteSpace=wrap;html=1;fillColor=#FFF2CC;strokeColor=#D6B656;align=left;spacingLeft=10;" vertex="1" parent="1">
          <mxGeometry x="700" y="410" width="200" height="35" as="geometry" />
        </mxCell>
        <mxCell id="d8KklWFFAg3rlcDzmm-0-232" value="—" style="rounded=0;whiteSpace=wrap;html=1;fillColor=#FFFFFF;strokeColor=#000000;fontSize=14;fontStyle=1;" vertex="1" parent="1">
          <mxGeometry x="900" y="410" width="150" height="35" as="geometry" />
        </mxCell>
        <mxCell id="d8KklWFFAg3rlcDzmm-0-233" value="N" style="rounded=0;whiteSpace=wrap;html=1;fillColor=#FFFFFF;strokeColor=#000000;fontSize=14;fontStyle=1;" vertex="1" parent="1">
          <mxGeometry x="1050" y="410" width="150" height="35" as="geometry" />
        </mxCell>
        <mxCell id="d8KklWFFAg3rlcDzmm-0-234" value="N" style="rounded=0;whiteSpace=wrap;html=1;fillColor=#FFFFFF;strokeColor=#000000;fontSize=14;fontStyle=1;" vertex="1" parent="1">
          <mxGeometry x="1200" y="410" width="150" height="35" as="geometry" />
        </mxCell>
        <mxCell id="d8KklWFFAg3rlcDzmm-0-235" value="Y" style="rounded=0;whiteSpace=wrap;html=1;fillColor=#FFFFFF;strokeColor=#000000;fontSize=14;fontStyle=1;" vertex="1" parent="1">
          <mxGeometry x="1350" y="410" width="150" height="35" as="geometry" />
        </mxCell>
        <mxCell id="d8KklWFFAg3rlcDzmm-0-236" value="" style="line;strokeWidth=3;fillColor=none;align=left;verticalAlign=middle;spacingTop=-1;spacingLeft=3;spacingRight=3;rotatable=0;labelPosition=right;points=[];portConstraint=eastwest;strokeColor=#666666;" vertex="1" parent="1">
          <mxGeometry x="700" y="447" width="800" height="8" as="geometry" />
        </mxCell>
        <mxCell id="d8KklWFFAg3rlcDzmm-0-237" value="Pay Basic Salary" style="rounded=0;whiteSpace=wrap;html=1;fillColor=#F8CECC;strokeColor=#B85450;align=left;spacingLeft=10;fontStyle=1;" vertex="1" parent="1">
          <mxGeometry x="700" y="460" width="200" height="35" as="geometry" />
        </mxCell>
        <mxCell id="d8KklWFFAg3rlcDzmm-0-238" value="X" style="rounded=0;whiteSpace=wrap;html=1;fillColor=#FFFFFF;strokeColor=#000000;fontSize=16;fontStyle=1;" vertex="1" parent="1">
          <mxGeometry x="900" y="460" width="150" height="35" as="geometry" />
        </mxCell>
        <mxCell id="d8KklWFFAg3rlcDzmm-0-239" value="—" style="rounded=0;whiteSpace=wrap;html=1;fillColor=#FFFFFF;strokeColor=#000000;fontSize=16;fontStyle=1;" vertex="1" parent="1">
          <mxGeometry x="1050" y="460" width="150" height="35" as="geometry" />
        </mxCell>
        <mxCell id="d8KklWFFAg3rlcDzmm-0-240" value="—" style="rounded=0;whiteSpace=wrap;html=1;fillColor=#FFFFFF;strokeColor=#000000;fontSize=16;fontStyle=1;" vertex="1" parent="1">
          <mxGeometry x="1200" y="460" width="150" height="35" as="geometry" />
        </mxCell>
        <mxCell id="d8KklWFFAg3rlcDzmm-0-241" value="—" style="rounded=0;whiteSpace=wrap;html=1;fillColor=#FFFFFF;strokeColor=#000000;fontSize=16;fontStyle=1;" vertex="1" parent="1">
          <mxGeometry x="1350" y="460" width="150" height="35" as="geometry" />
        </mxCell>
        <mxCell id="d8KklWFFAg3rlcDzmm-0-242" value="Calculate Hourly Wage" style="rounded=0;whiteSpace=wrap;html=1;fillColor=#F8CECC;strokeColor=#B85450;align=left;spacingLeft=10;" vertex="1" parent="1">
          <mxGeometry x="700" y="495" width="200" height="35" as="geometry" />
        </mxCell>
        <mxCell id="d8KklWFFAg3rlcDzmm-0-243" value="—" style="rounded=0;whiteSpace=wrap;html=1;fillColor=#FFFFFF;strokeColor=#000000;fontSize=16;fontStyle=1;" vertex="1" parent="1">
          <mxGeometry x="900" y="495" width="150" height="35" as="geometry" />
        </mxCell>
        <mxCell id="d8KklWFFAg3rlcDzmm-0-244" value="X" style="rounded=0;whiteSpace=wrap;html=1;fillColor=#FFFFFF;strokeColor=#000000;fontSize=16;fontStyle=1;" vertex="1" parent="1">
          <mxGeometry x="1050" y="495" width="150" height="35" as="geometry" />
        </mxCell>
        <mxCell id="d8KklWFFAg3rlcDzmm-0-245" value="X" style="rounded=0;whiteSpace=wrap;html=1;fillColor=#FFFFFF;strokeColor=#000000;fontSize=16;fontStyle=1;" vertex="1" parent="1">
          <mxGeometry x="1200" y="495" width="150" height="35" as="geometry" />
        </mxCell>
        <mxCell id="d8KklWFFAg3rlcDzmm-0-246" value="X" style="rounded=0;whiteSpace=wrap;html=1;fillColor=#FFFFFF;strokeColor=#000000;fontSize=16;fontStyle=1;" vertex="1" parent="1">
          <mxGeometry x="1350" y="495" width="150" height="35" as="geometry" />
        </mxCell>
        <mxCell id="d8KklWFFAg3rlcDzmm-0-247" value="Produce Absence Report" style="rounded=0;whiteSpace=wrap;html=1;fillColor=#F8CECC;strokeColor=#B85450;align=left;spacingLeft=10;" vertex="1" parent="1">
          <mxGeometry x="700" y="530" width="200" height="35" as="geometry" />
        </mxCell>
        <mxCell id="d8KklWFFAg3rlcDzmm-0-248" value="—" style="rounded=0;whiteSpace=wrap;html=1;fillColor=#FFFFFF;strokeColor=#000000;fontSize=16;fontStyle=1;" vertex="1" parent="1">
          <mxGeometry x="900" y="530" width="150" height="35" as="geometry" />
        </mxCell>
        <mxCell id="d8KklWFFAg3rlcDzmm-0-249" value="X" style="rounded=0;whiteSpace=wrap;html=1;fillColor=#FFFFFF;strokeColor=#000000;fontSize=16;fontStyle=1;" vertex="1" parent="1">
          <mxGeometry x="1050" y="530" width="150" height="35" as="geometry" />
        </mxCell>
        <mxCell id="d8KklWFFAg3rlcDzmm-0-250" value="—" style="rounded=0;whiteSpace=wrap;html=1;fillColor=#FFFFFF;strokeColor=#000000;fontSize=16;fontStyle=1;" vertex="1" parent="1">
          <mxGeometry x="1200" y="530" width="150" height="35" as="geometry" />
        </mxCell>
        <mxCell id="d8KklWFFAg3rlcDzmm-0-251" value="—" style="rounded=0;whiteSpace=wrap;html=1;fillColor=#FFFFFF;strokeColor=#000000;fontSize=16;fontStyle=1;" vertex="1" parent="1">
          <mxGeometry x="1350" y="530" width="150" height="35" as="geometry" />
        </mxCell>
        <mxCell id="d8KklWFFAg3rlcDzmm-0-252" value="Calculate Overtime Pay" style="rounded=0;whiteSpace=wrap;html=1;fillColor=#F8CECC;strokeColor=#B85450;align=left;spacingLeft=10;" vertex="1" parent="1">
          <mxGeometry x="700" y="565" width="200" height="35" as="geometry" />
        </mxCell>
        <mxCell id="d8KklWFFAg3rlcDzmm-0-253" value="—" style="rounded=0;whiteSpace=wrap;html=1;fillColor=#FFFFFF;strokeColor=#000000;fontSize=16;fontStyle=1;" vertex="1" parent="1">
          <mxGeometry x="900" y="565" width="150" height="35" as="geometry" />
        </mxCell>
        <mxCell id="d8KklWFFAg3rlcDzmm-0-254" value="—" style="rounded=0;whiteSpace=wrap;html=1;fillColor=#FFFFFF;strokeColor=#000000;fontSize=16;fontStyle=1;" vertex="1" parent="1">
          <mxGeometry x="1050" y="565" width="150" height="35" as="geometry" />
        </mxCell>
        <mxCell id="d8KklWFFAg3rlcDzmm-0-255" value="—" style="rounded=0;whiteSpace=wrap;html=1;fillColor=#FFFFFF;strokeColor=#000000;fontSize=16;fontStyle=1;" vertex="1" parent="1">
          <mxGeometry x="1200" y="565" width="150" height="35" as="geometry" />
        </mxCell>
        <mxCell id="d8KklWFFAg3rlcDzmm-0-256" value="X" style="rounded=0;whiteSpace=wrap;html=1;fillColor=#FFFFFF;strokeColor=#000000;fontSize=16;fontStyle=1;" vertex="1" parent="1">
          <mxGeometry x="1350" y="565" width="150" height="35" as="geometry" />
        </mxCell>
      </root>
    </mxGraphModel>
  </diagram>
</mxfile>
